<svg xmlns="http://www.w3.org/2000/svg" width="64" height="64" fill="none" viewBox="0 0 64 64">
  <path fill="#292929" fill-rule="evenodd" d="M32 0c17.673 0 32 14.327 32 32 0 17.673-14.327 32-32 32C14.327 64 0 49.673 0 32 0 14.327 14.327 0 32 0" clip-rule="evenodd"/>
  <path stroke="#fff" stroke-linecap="round" stroke-linejoin="round" stroke-opacity=".9" stroke-width="3" d="m21.747 33.06-2.475-2.474a8 8 0 0 1 0-11.314v0a8 8 0 0 1 11.314 0l2.475 2.475m9.192 9.193 2.475 2.474a8 8 0 0 1 0 11.314v0a8 8 0 0 1-11.314 0l-2.475-2.475M28.464 28.464l7.07 7.073"/>
</svg>
