<?xml version="1.0" standalone="no"?><!DOCTYPE svg PUBLIC "-//W3C//DTD SVG 1.1//EN" "http://www.w3.org/Graphics/SVG/1.1/DTD/svg11.dtd"><svg t="1758006536198" class="icon" viewBox="0 0 1024 1024" version="1.1" xmlns="http://www.w3.org/2000/svg" p-id="1407" xmlns:xlink="http://www.w3.org/1999/xlink" width="384" height="384"><path d="M200.82108535 708.42949913c-40.19735127 0-72.68241973-32.71877403-72.68241972-72.68242061v-222.48766495c0-39.96364571 32.48506846-72.68241973 72.68241972-72.6824206 19.39755937 0 37.62659092 7.47857725 51.4152167 21.26720302 13.78862666 13.78862666 21.26720303 32.01765732 21.26720391 51.41521758v222.48766495c0 19.39755937-7.47857725 37.62659092-21.26720391 51.4152167-13.78862666 13.55492109-32.01765732 21.26720303-51.4152167 21.26720391" fill="#FFFFFF" p-id="1408"></path><path d="M200.82108535 359.97455234c-29.44689698 0-53.05115566 23.83796423-53.05115566 53.05115566v222.48766496c0 29.44689698 23.83796423 53.05115566 53.05115566 53.28486122 29.44689698 0 53.05115566-23.83796423 53.05115567-53.28486122v-222.48766496c0-29.21319141-23.83796423-53.05115566-53.05115567-53.05115566M770.82887568 370.95871221H252.93741875v-19.63126494c0-80.16099698 43.70293388-154.71306123 115.21682666-198.88340714L340.3432874 101.96364569c-3.50558261-5.84263828-4.20669933-13.55492109-2.33705566-20.33238075 2.1033501-6.77746055 6.77746055-12.85380439 13.08750996-16.12568233C355.06673633 63.16852783 359.50714122 62 363.94754609 62c9.81563203 0 18.93014825 5.37522715 23.6042587 14.02233223l29.2131914 53.05115478c30.14801367-10.98415987 61.93196543-16.59309258 94.8844459-16.59309258 33.41989073 0 65.43754893 5.60893271 95.58556172 16.82679814L636.21448965 76.02233223c4.67411045-8.64710508 13.78862666-14.02233222 23.60425869-14.02233223 4.44040489 0 8.88080977 1.16852783 12.85380439 3.27187705 6.54375498 3.50558261 11.21786543 9.34822089 13.08750996 16.35938789 2.1033501 7.01116613 1.16852783 14.25603781-2.33705566 20.56608633l-27.81095801 50.7141C727.12594092 197.08179717 770.82887568 271.63386143 770.82887568 351.7948584v19.16385381z" fill="#FFFFFF" p-id="1409"></path><path d="M629.20332354 160.15632295l37.15917978-67.77460371c1.86964453-3.50558261 0.7011167-8.17969395-2.8044668-10.04933847-3.73928818-1.86964453-8.17969395-0.7011167-10.0493376 3.03817235l-37.39288447 68.47572042c-31.55024708-14.02233222-66.83978144-21.96831972-103.99896211-21.73461418-37.15917979 0-72.44871503 7.71228281-103.76525567 21.73461418l-37.39288446-68.24201485c-1.86964453-3.50558261-6.54375498-4.90781601-10.0493376-3.03817236s-4.90781601 6.54375498-3.03817237 10.04933848l37.15917979 67.77460371C322.11425586 198.01661945 272.80238924 269.53051133 272.80238924 351.7948584h478.62892707c-0.23370557-82.49805263-49.31186747-154.01194452-122.22799277-191.63853545m-226.22695401 104.70007794c-10.98415987 0-20.09867607-8.88080977-20.0986752-20.09867522 0-10.98415987 8.88080977-20.09867607 20.0986752-20.09867606 10.98415987 0 20.09867607 9.11451533 20.09867607 20.09867606 0 10.98415987-8.88080977 20.09867607-20.09867607 20.0986752m218.04726094 0c-10.98415987 0-20.09867607-8.88080977-20.09867607-20.0986752 0-10.98415987 8.88080977-20.09867607 20.09867607-20.09867606 10.98415987 0 20.09867607 9.11451533 20.09867519 20.09867606 0 10.98415987-9.11451533 20.09867607-20.09867519 20.0986752" fill="#FFFFFF" p-id="1410"></path><path d="M423.0750456 962c-39.96364571 0-72.68241973-32.48506846-72.6824206-72.68241973v-98.15632382h-19.16385293c-20.33238075 0-39.49623457-7.94598838-53.98597793-22.2020253-14.48974335-14.48974335-22.43573088-33.41989073-22.20202529-53.98597705V350.62633057H769.42664229v364.34692354c0 42.06699581-34.12100742 76.18800323-76.18800323 76.18800234h-19.16385292v98.15632383c0 39.96364571-32.48506846 72.68241973-72.68242063 72.68241972-19.39755937 0-37.62659092-7.47857725-51.41521668-21.26720303-13.78862666-13.78862666-21.26720303-32.01765732-21.26720303-51.41521669v-98.15632383h-32.7187749v98.15632383c-0.23370557 39.96364571-32.95247959 72.68241973-72.9161253 72.68241972" fill="#FFFFFF" p-id="1411"></path><path d="M274.67203291 714.73954854c0 31.31654151 25.24019766 56.79044385 56.79044472 56.79044384h38.5614123V889.31758028c0 29.21319141 23.83796423 53.05115566 53.05115567 53.05115478 29.44689698 0 53.05115566-23.83796423 53.05115567-53.28486035v-117.78758789h71.74759746v117.78758789c0 29.21319141 23.83796423 53.05115566 53.05115567 53.0511548 29.44689698 0 53.05115566-23.83796423 53.05115567-53.0511548v-117.78758789h38.79511786c31.31654151 0 56.79044385-25.47390322 56.79044473-56.79044385V369.55647881H274.43832734l0.23370557 345.18306973zM823.17891465 708.19579356c-39.96364571 0-72.68241973-32.48506846-72.68242061-72.6824206v-222.48766496c0-40.19735127 32.48506846-72.68241973 72.68242061-72.6824206 40.19735127 0 72.68241973 32.48506846 72.68241972 72.68242061v222.48766493c0 40.19735127-32.48506846 72.68241973-72.68241972 72.68242062" fill="#FFFFFF" p-id="1412"></path><path d="M823.17891465 359.97455234c-29.44689698 0-53.05115566 23.83796423-53.05115567 53.05115566v222.48766496c0 29.44689698 23.83796423 53.05115566 53.05115567 53.05115566 29.44689698 0 53.05115566-23.83796423 53.05115566-53.05115566v-222.48766496c0-29.21319141-23.60425869-53.05115566-53.05115566-53.05115566" fill="#FFFFFF" p-id="1413"></path><path d="M200.82108535 359.97455234c-29.44689698 0-53.05115566 23.83796423-53.05115566 53.05115566v222.48766496c0 29.44689698 23.83796423 53.05115566 53.05115566 53.05115566 29.44689698 0 53.05115566-23.83796423 53.05115567-53.05115566v-222.48766496c0-29.21319141-23.83796423-53.05115566-53.05115567-53.05115566M629.20332354 160.15632295l37.15917978-67.77460371c1.86964453-3.50558261 0.7011167-7.94598838-2.8044668-10.04933847-3.50558261-1.86964453-8.17969395-0.7011167-10.0493376 3.03817235l-37.39288447 68.47572042c-31.55024708-14.02233222-66.83978144-21.96831972-104.23266679-21.96831974-37.15917979 0-72.44871503 7.71228281-103.76525655 21.73461417l-37.39288446-68.24201485c-1.86964453-3.50558261-6.54375498-4.90781601-10.04933762-3.03817235s-4.90781601 6.54375498-3.03817235 10.04933847l37.15917978 67.77460371c-72.91612529 37.62659092-122.22799277 109.14048281-122.22799277 191.40482987h478.62892705c0-82.26434708-49.07816191-153.77823984-121.9942872-191.40482987m-226.22695401 104.70007794c-10.98415987 0-20.09867607-8.88080977-20.0986752-20.09867522 0-10.98415987 8.88080977-20.09867607 20.0986752-20.09867606 10.98415987 0 20.09867607 9.11451533 20.09867607 20.09867606 0 10.98415987-8.88080977 20.09867607-20.09867607 20.0986752m218.04726094 0c-10.98415987 0-20.09867607-8.88080977-20.09867607-20.0986752 0-10.98415987 8.88080977-20.09867607 20.09867607-20.09867606 10.98415987 0 20.09867607 9.11451533 20.09867519 20.09867606 0 10.98415987-9.11451533 20.09867607-20.09867519 20.0986752m-346.58530313 105.16748906v344.94936418c0 31.31654151 25.24019766 56.79044385 56.79044473 56.79044384h38.5614123v117.78758702c0 29.21319141 23.83796423 53.05115566 53.05115566 53.05115566 29.44689698 0 53.05115566-23.83796423 53.05115567-53.28486035v-117.78758789h71.74759746V889.31758028c0 29.21319141 23.83796423 53.05115566 53.05115567 53.05115478 29.44689698 0 53.05115566-23.83796423 53.05115565-53.05115478v-117.78758789h38.79511789c31.31654151 0 56.79044385-25.24019766 56.79044472-56.79044385V369.79018437l-474.88963975 0.23370556z m602.02544854 43.00181808c0-29.44689698-23.83796423-53.05115566-53.05115567-53.05115567-29.44689698 0-53.05115566 23.83796423-53.05115566 53.05115567v222.48766493c0 29.44689698 23.83796423 53.05115566 53.05115566 53.05115568 29.44689698 0 53.05115566-23.83796423 53.05115567-53.05115568v-222.48766493z" fill="#A4C439" p-id="1414"></path></svg>