<?xml version="1.0" standalone="no"?><!DOCTYPE svg PUBLIC "-//W3C//DTD SVG 1.1//EN" "http://www.w3.org/Graphics/SVG/1.1/DTD/svg11.dtd"><svg t="1758006539383" class="icon" viewBox="0 0 1024 1024" version="1.1" xmlns="http://www.w3.org/2000/svg" p-id="1573" xmlns:xlink="http://www.w3.org/1999/xlink" width="384" height="384"><path d="M512 62C264.49999998 62 62 264.49999998 62 512s202.50000001 450 450 450 450-202.50000001 450-450S759.50000002 62 512 62z m398.25 515.25l-2.25-2.25-20.24999999-20.25-4.50000001-4.5c0-6.75-2.25-9 0-11.25s-6.75-13.50000001-9-18c9-9 15.75-20.25 15.75-31.50000001-2.25-15.75-6.75-31.50000001-11.25-45 0-9 6.75-11.25 9.00000001-18 2.25-9 6.75-20.25 8.99999999-29.24999999 20.25 56.24999999 24.75 119.25 13.5 180zM770.75 203.75c-4.50000001 0 0 6.75-6.75 4.5-2.25 0-2.25 0-2.25-2.25h-4.5c-4.50000001-2.25-6.75-6.75-11.25-6.75H737c-2.25 0 0-2.25-4.50000001-4.5s-2.25-2.25-2.24999999-2.24999999c-6.75-2.25-11.25-9-13.5-13.50000001 0-2.25 0 0 2.25-2.25-4.50000001-2.25-4.50000001 0-6.74999999-2.24999999s-2.25-2.25-2.25000001-4.50000001-9-4.50000001-9-6.75 0 0 2.25-2.25h-4.5v-2.25c2.25-2.25 4.50000001-2.25 6.74999999-2.24999999 22.50000001 13.50000001 45 27 65.25000001 47.24999999 0-2.25 0 0 0 0z m-144-60.75H624.50000001l-2.25000001-2.25c-6.75-2.25-11.25-2.25-18-4.50000001s-24.75-2.25-20.24999999-6.74999998c-9-2.25-13.50000001-4.50000001-20.25000001-6.75000001-2.25 0-2.25 2.25-4.5 2.25h-4.5c-2.25 0-4.50000001 2.25-9 0s-11.25-2.25-11.25000001-4.49999999 6.75-2.25 11.25000001-2.25000001h22.50000001l-4.50000001-2.25h6.74999999c2.25 0 4.50000001-2.25 6.75000001-2.25 11.25 2.25 24.75 4.50000001 36 6.75000001h4.5-4.5v2.24999999h2.24999999c2.25 2.25 4.50000001 4.50000001 6.75000001 4.5 4.50000001 0 6.75 0 6.75 2.25000001h4.49999999v2.24999999l4.50000001 2.25s-2.25 2.25-2.25 4.50000001c-9-2.25-15.75-4.50000001-24.75-6.75000001h-4.50000001c4.50000001 4.50000001 18 6.75 20.25000001 11.25z m-135-31.49999999h-9c-2.25 0-6.75-2.25-9-2.25000001 11.25 0 22.50000001-2.25 33.74999999-2.25-4.50000001 2.25-11.25 4.50000001-13.49999999 4.50000001h-2.25z m-20.25000001 0c0 2.25-9 2.25-13.49999999 2.24999999-4.50000001 0-6.75 0-11.25-2.24999999 9-2.25 15.75-2.25 24.74999999-4.50000001v4.50000001z m155.25000001 13.49999999l15.74999999 4.50000001h-2.24999999c-4.50000001 0-9-2.25-13.5-4.50000001z m-184.5-11.25c6.75 2.25 13.50000001 2.25 20.25000001 2.25v2.25c-4.50000001 2.25-9 4.50000001-13.50000001 4.5h-6.75c-2.25 0 0 4.50000001-6.74999999 2.25-22.50000001-2.25-13.50000001 0-15.75000001 0 4.50000001 0 13.50000001 0 13.5 2.25s-4.50000001 0-9.00000001 2.25000001c-2.25 2.25-6.75 4.50000001-8.99999999 6.74999998-6.75 2.25-9 9-11.25 15.75v6.75000001c2.25 0 4.50000001-2.25 6.75-2.24999999s9 9 11.25 11.24999998c4.50000001 0 6.75-2.25 11.25-2.24999998s9 2.25 11.25000001 2.24999998c11.25 2.25 22.50000001 4.50000001 33.74999999 9.00000001 6.75 0 11.25 2.25 18 2.25s9 6.75 9 11.25 11.25 11.25 18 15.75h9c0-2.25 2.25-4.50000001 4.5-6.75-4.50000001-4.50000001 0-11.25-11.24999999-15.75000001 6.75 0 22.50000001-6.75 22.49999999-11.24999999s2.25-9-2.25-11.25-9 0-11.24999999-4.49999999c4.50000001 0 11.25-2.25 9-6.75000001s-9-4.50000001-6.75000001-6.75c9-2.25 0-4.50000001 0-6.75000001s4.50000001-4.50000001 9-4.49999999c6.75 0 11.25 2.25 20.25 4.49999999h6.75c6.75 0 6.75 2.25 13.5 4.50000001 0 4.50000001 13.50000001 4.50000001 15.75 6.75000001 2.25 4.50000001 0 11.25 4.50000001 11.24999999s6.75 6.75 11.24999999 6.75000001 4.50000001-2.25 9-2.25000001 9-2.25 6.75000001-4.5 4.50000001-2.25 4.49999999-4.5c2.25 0 2.25 2.25 4.50000001 2.25000001 2.25 4.50000001 11.25 6.75 9 9s6.75 6.75 9 6.74999999 2.25 2.25 2.24999999 4.5-2.25 2.25-2.24999999 2.25c4.50000001 2.25 9 4.50000001 13.49999999 4.49999999 0 6.75 13.50000001 9 20.25 9.00000002l2.25000001 2.24999999s-13.50000001 2.25-20.25000001 4.5h2.25000001c6.75 0 15.75 0 22.49999999-2.25v2.25s0 2.25 2.25 2.25000001c2.25 2.25 4.50000001 4.50000001 4.5 9s-18 2.25-22.5 6.74999999c-6.75 6.75-18 2.25-31.5 0-9-2.25-18-2.25-24.75 0-6.75 2.25-4.50000001 4.50000001-6.75 6.75s-11.25 2.25-13.5 9c9 0 13.50000001-6.75 24.75000001-6.75 6.75 0 13.50000001 0 13.49999999 4.5s-9 4.50000001-11.25 6.75000001h6.75000001c0 6.75 13.50000001 13.50000001 20.24999999 13.49999999 2.25 0 9 0 9 4.50000001-6.75 2.25-11.25 4.50000001-18 6.74999999-4.50000001 2.25-11.25 6.75-11.24999999 6.75-2.25 0-2.25-2.25-4.50000001-4.49999999 0-4.50000001 9-9 15.75-9-4.50000001 0-4.50000001 0-4.5-4.50000001-4.50000001 0-4.50000001 2.25-6.74999999 4.50000001h-13.50000001s0 2.25 2.25 2.24999999c-4.50000001 4.50000001-6.75 6.75-11.25 6.75000001-2.25 0-4.50000001 0-6.75 2.24999999-4.50000001 4.50000001-13.50000001 0-13.50000001 9v2.25l2.25000001 4.50000001 2.25-2.25000002v2.25000002h-9c-6.75 2.25-15.75 2.25-20.25 4.49999999h11.25-13.5l-2.24999999 2.25 2.24999999 2.25000001s-6.75 11.25-9 11.24999999-2.25-2.25-2.24999999-2.24999999l-2.25000001 2.24999999c0 2.25 2.25 2.25 2.25000001 4.5-2.25 4.50000001-4.50000001 6.75-6.75000001 11.25000001v-2.25000001-2.25s-2.25-6.75-2.24999999-9v2.25c0 2.25 2.25 6.75 2.24999999 9v4.5c0 2.25 2.25 0 2.25 0v2.25s-2.25 2.25-4.49999999 2.25c0 2.25 2.25 2.25 4.49999999 2.24999999 0 2.25-2.25 2.25-4.49999999 2.25000001s0 2.25 0 2.25l2.24999999 2.25-2.24999999 2.25000001s-4.50000001 2.25-6.75000001 2.24999999-4.50000001 2.25-4.5 2.25c-13.50000001 6.75-29.25 6.75-29.25 27 0 9 9 11.25 9 20.25v2.25000001c0 2.25 4.50000001 6.75 4.50000001 11.24999999s-2.25 11.25-6.75000001 11.25-4.50000001-4.50000001-6.75-6.75c-4.50000001-2.25-6.75-6.75-9-9-4.50000001-9 0-24.75-13.49999999-24.74999999-2.25 0-4.50000001 4.50000001-6.75000001 4.49999999-6.75 0-9-6.75-15.75-6.75s-6.75 2.25-6.75 2.25000001l-2.25-2.25000001c-4.50000001 0-11.25 0-15.75 2.25000001h4.5c0 4.50000001-2.25 6.75 0 9-9 4.50000001-15.75-4.50000001-22.50000001-4.50000001-2.25 0-2.25 2.25-4.49999999 2.25h-6.75c-9 0-13.50000001 6.75-15.75 9s-4.50000001 0-9 2.25000001c-6.75 2.25-11.25 9-11.25 15.74999999l2.25 2.25000001c0 2.25 0 2.25 2.25000001 4.49999999 0 4.50000001-2.25 6.75-2.25000001 11.24999999v27.00000001c2.25 2.25 4.50000001 4.50000001 6.75 9 4.50000001 4.50000001 4.50000001 9 13.50000001 11.24999999 2.25 0 2.25 2.25 4.49999999 2.25000001 6.75 0 11.25-4.50000001 15.75-4.5 2.25 0 4.50000001 0 6.75000001 2.24999999 2.25 0 4.50000001-4.50000001 4.49999999-4.49999999s6.75-6.75 6.75-11.25000001c0-9 11.25-9 20.25-8.99999999h9v2.25s-4.50000001 9-4.49999999 13.50000001c0 4.50000001-2.25 6.75-4.50000001 8.99999998v-2.24999999 13.5c0 4.50000001-4.50000001 4.50000001-4.49999999 6.75000001v2.24999999c0 2.25 2.25 2.25 4.49999999 2.25 11.25 0 18-2.25 29.25-2.25s9 4.50000001 13.5 6.75000001v4.49999999c0 4.50000001 0 11.25-2.24999999 15.75v18c0 6.75 6.75 9 11.24999999 11.25s2.25 6.75 9 6.75 11.25-4.50000001 18-6.75 9 9 13.5 11.25l-2.25 2.25000001 2.25-2.25000001h4.5V557l2.25-2.25c0-2.25 2.25-4.50000001 4.50000001-4.5s2.25-4.50000001 2.24999999-6.74999999 4.50000001-4.50000001 9-6.75000001l20.25-6.75c4.50000001-2.25 4.50000001-4.50000001 9-4.49999999s2.25 2.25 2.25 2.24999999c0 2.25-2.25 2.25-2.25 2.25-2.25 4.50000001-2.25 6.75-2.25000001 11.25 0 2.25 0 9 4.50000001 9s2.25-4.50000001 2.25000001-4.5-4.50000001-4.50000001-2.25000001-9 4.50000001-2.25 6.75-4.5h6.75c0-2.25-6.75-2.25-4.5-4.5h4.5c0 4.50000001 9 6.75 11.25 6.74999999 0 2.25 2.25 4.50000001 2.25 4.50000001h15.75c0 2.25 4.50000001 2.25 6.75 2.25s6.75 0 9-4.5c2.25 0 4.50000001 0 6.75000001-2.25000001h6.74999999-4.5v2.25000001s6.75 4.50000001 11.25 6.74999999 2.25 4.50000001 4.50000001 9.00000002h4.49999999c4.50000001 4.50000001 6.75 4.50000001 11.25 11.24999999 0 0 2.25 2.25 4.5 2.25 2.25 6.75 11.25 6.75 20.24999999 6.75h6.75000001c2.25 2.25 4.50000001 2.25 8.99999999 2.25h2.25000001c4.50000001 0 9 9 13.49999999 9.00000001 0 4.50000001 2.25 11.25 4.50000001 15.75 0 2.25 4.50000001 2.25 4.50000001 4.49999999-6.75 6.75-11.25 13.50000001-13.50000001 22.5 0 2.25 2.25 2.25 2.25 2.25 2.25 0 4.50000001 2.25 4.5 4.49999999h6.75000001v2.25000001l2.24999999-2.25000001s4.50000001-9 9-9 11.25 2.25 15.75000001 4.50000001c2.25 0 4.50000001 0 4.49999999 2.25v6.75h2.25c2.25 0 2.25-2.25 4.5-2.25s4.50000001 2.25 9 2.25l9-2.25c2.25 0 6.75 2.25 9 2.25 2.25 4.50000001 4.50000001 6.75 9 9h6.75000001c2.25 0 4.50000001 4.50000001 4.49999999 9-2.25 13.50000001-9 27-18 36l-4.49999999 4.50000001-6.75000001 6.74999999c-4.50000001 4.50000001 0 4.50000001 0 11.24999999s-4.50000001 15.75-4.5 18 0 2.25-2.25 2.25000001l-4.49999999 4.5c0 2.25-2.25 4.50000001-2.25000001 6.75-4.50000001 4.50000001-4.50000001 6.75-9 11.25s-2.25 4.50000001-2.25 4.5c-2.25 4.50000001-6.75 6.75-9 6.74999999-4.50000001 0-6.75 2.25-11.25 2.25000001-2.25 0-2.25 2.25-2.24999999 2.25-6.75 6.75-11.25 4.50000001-15.75000001 11.25s-4.50000001 4.50000001-6.75 4.5-2.25 0-2.25 2.25-2.25 11.25-2.24999999 15.75c-4.50000001 2.25-6.75 6.75-11.25000001 11.25-2.25 2.25 0-2.25-2.25 2.25s-11.25 11.25-15.75 15.75-9 15.75-20.25 18h-20.25s2.25 2.25 4.5 2.25000001 0 2.25 2.25000001 4.49999999 4.50000001 0 2.24999999 2.25 0 2.25-2.24999999 4.49999999l-6.75000001 6.75000001c-4.50000001 2.25-9 4.50000001-15.75 6.75-4.50000001 2.25-11.25 0-13.49999999 2.25s0 4.50000001-2.25000001 6.75l-9 4.49999999h-6.74999999c-2.25 0-2.25 0-2.25000001 2.25000001-18 4.50000001-36 9-56.25 11.25l2.25-4.50000001v-2.24999999h-2.25c-2.25 0-2.25 2.25-4.49999999 2.24999999s0-4.50000001 0-6.74999999 2.25-4.50000001 2.24999999-6.75 2.25 0 2.25 0 0-2.25-2.25-2.24999999v-6.75000001c2.25-4.50000001 4.50000001-6.75 6.75000001-11.25 0-2.25 2.25-4.50000001 2.24999999-4.5s2.25 0 2.24999999-2.25c2.25-4.50000001 2.25-6.75 4.50000002-11.25s0-9 0-13.5 2.25-6.75 2.24999999-9c0-6.75 4.50000001-11.25 6.75000001-18v-2.25c0-2.25 2.25-4.50000001 2.24999998-6.75v-9c0-2.25 2.25-9 2.25000001-13.5v-18c-2.25-4.50000001-6.75-9-11.25-11.25000001-4.50000001 0-6.75 0-11.24999999-2.24999999-2.25-2.25-4.50000001-4.50000001-9-4.50000001-6.75-2.25-11.25-4.50000001-15.75000001-8.99999999-2.25-2.25 0-4.50000001 0-6.75000001s-4.50000001-4.50000001-4.5-8.99999999-4.50000001-11.25-4.5-15.75l-6.75-13.5c0 2.25-4.50000001 2.25-4.49999999 2.25-2.25-2.25-2.25-4.50000001-2.25000001-6.75 0-2.25-2.25-2.25-4.5-2.25-4.50000001-2.25-6.75-6.75-6.75-11.25 0-2.25 2.25-6.75 2.25-9 2.25-4.50000001 9-4.50000001 9-9-2.25-2.25-2.25 0-4.5 0s-4.50000001-4.50000001-4.5-9c2.25-6.75 2.25-15.75 2.25000001-22.5 9 0 11.25-6.75 13.49999999-11.25s11.25-4.50000001 13.50000001-11.24999999l-2.25000001-2.25000002v-2.24999999-2.25c0-2.25-2.25-4.50000001-2.25-6.75s2.25-4.50000001 2.25-6.75000001-4.50000001-4.50000001-4.5-9v-2.25l-2.24999999-2.24999999 2.24999999-2.25c-2.25-2.25-2.25-6.75-4.5-6.75-4.50000001 2.25-6.75 4.50000001-11.25 6.75l2.25 2.25c0 2.25-2.25 4.50000001-4.5 4.49999999-4.50000001 0-9-4.50000001-11.24999999-6.74999999s-6.75 0-9 0-2.25 0-2.25000001-2.25000001c-4.50000001 0-4.50000001-4.50000001-4.5-6.74999999-4.50000001-2.25-6.75-4.50000001-11.24999999-6.75v2.25h-2.25000001c-4.50000001-2.25-2.25-6.75-2.25-11.25-2.25-2.25-4.50000001-4.50000001-6.75-4.50000001-4.50000001-4.50000001-9-6.75-11.25-13.49999999h-2.25c-2.25 0-4.50000001 2.25-6.75 2.25-4.50000001 0-9-2.25-13.49999999-4.5-6.75-2.25-9 0-15.75000001-4.5-9-4.50000001-11.25-15.75-20.24999999-20.25h-2.25000001c-2.25-2.25-4.50000001-2.25-6.74999999-2.25-4.50000001 0-6.75 4.50000001-11.25000001 4.5-2.25 0-4.50000001-2.25-6.74999999-2.25h-6.75000001c-6.75-2.25-11.25-4.50000001-15.75-9-2.25-2.25-4.50000001 0-9 0s-4.50000001-4.50000001-9-6.75-6.75 0-9-2.25l-2.25-2.25c-4.50000001-2.25-11.25-4.50000001-13.5-9-2.25 0-4.50000001-4.50000001-4.50000001-4.5s2.25-4.50000001 2.25000001-6.74999999-2.25-4.50000001-2.25000001-6.75000001c-2.25-9-9-18-15.75-24.75-2.25-2.25-6.75-4.50000001-8.99999999-6.75s0-4.50000001-2.25-6.74999999-11.25-4.50000001-11.24999999-9h-2.25000001l-9-9c-2.25-2.25-2.25-6.75-4.5-9s-2.25-9-4.5-9-9-2.25-11.25-4.50000001v2.25c0 4.50000001 2.25 9 4.50000001 13.5 2.25 4.50000001 4.50000001 4.50000001 9 6.74999999 2.25 2.25 4.50000001 6.75 4.49999999 9 2.25 6.75 6.75 9 9 13.50000001 0 6.75 4.50000001 11.25 9 15.75 2.25-2.25 4.50000001 2.25 4.50000001 4.5s-2.25 4.50000001-2.25000002 4.5c-2.25-2.25-2.25-4.50000001-4.49999999-6.75-4.50000001 0-6.75-6.75-11.24999999-9s-2.25 0-2.25000001-2.25v-6.75c0-2.25-4.50000001-6.75-6.74999999-9s-11.25 0-13.50000001-4.50000001c2.25 0 6.75 0 4.50000001-2.24999999-2.25-4.50000001-6.75-9-13.50000001-13.5-2.25-2.25-2.25-9-4.49999999-11.25000001-2.25-4.50000001-4.50000001-6.75-6.75000001-11.24999999v-2.25c-6.75-6.75-15.75-13.50000001-24.75-13.50000001-2.25 0-2.25-4.50000001-2.25-4.49999999-2.25-9-9-4.50000001-6.75-13.50000001-4.50000001 0-9-11.25-13.49999999-17.99999998 0-2.25 2.25-4.50000001 2.24999999-4.50000001-2.25-4.50000001-2.25-9-2.24999999-13.50000001v-8.99999998c67.50000001-90 162-150.75 267.74999999-168.75000001z" fill="#1296db" p-id="1574"></path></svg>