<?xml version="1.0" standalone="no"?><!DOCTYPE svg PUBLIC "-//W3C//DTD SVG 1.1//EN" "http://www.w3.org/Graphics/SVG/1.1/DTD/svg11.dtd"><svg t="1747632344895" class="icon" viewBox="0 0 1024 1024" version="1.1" xmlns="http://www.w3.org/2000/svg" p-id="2433" xmlns:xlink="http://www.w3.org/1999/xlink" width="200" height="200"><path d="M53.312 512a458.688 458.688 0 1 1 917.376 0A458.688 458.688 0 0 1 53.312 512z m523.008-128.64c-28.032-17.28-51.584-31.808-71.04-40.832-19.84-9.152-42.368-16.064-65.92-8.832a90.688 90.688 0 0 0-40.192 25.792c-15.872 17.408-21.12 40.192-23.488 62.976-2.368 22.656-2.368 52.032-2.368 87.68v3.712c0 35.648 0 65.024 2.368 87.68 2.368 22.784 7.616 45.568 23.488 62.976 10.88 12.032 24.704 20.992 40.256 25.792 23.488 7.296 46.08 0.32 65.856-8.832 19.456-8.96 43.008-23.552 71.04-40.896l3.456-2.176c29.056-17.92 53.312-32.96 70.912-46.912 18.112-14.4 33.984-31.424 39.744-55.104 3.84-16 3.84-32.768 0-48.768-5.76-23.68-21.632-40.704-39.744-55.04-17.6-14.016-41.856-28.992-70.912-46.976l-3.456-2.176z" fill="#f44250" p-id="2434" data-spm-anchor-id="a313x.search_index.0.i0.68e63a81k5sRHc" class="selected"></path></svg>