<svg xmlns="http://www.w3.org/2000/svg" xmlns:xlink="http://www.w3.org/1999/xlink" fill="none" version="1.1" width="28.5" height="20.5" viewBox="0 0 28.5 20.5"><defs><linearGradient x1="1" y1="0.5" x2="0" y2="0.5" id="master_svg0_18_06964"><stop offset="0%" stop-color="#EE9302" stop-opacity="1"/><stop offset="100%" stop-color="#D76700" stop-opacity="1"/></linearGradient></defs><g><g><rect x="0" y="0" width="28.5" height="20.5" rx="5" fill="#FFFFFF" fill-opacity="1"/></g><g><path d="M3.96462890625,10.7034375Q3.96462890625,11.303437500000001,3.74212890625,11.708437499999999Q3.51962890625,12.1134375,3.10462890625,12.3184375Q2.68962890625,12.5234375,2.09962890625,12.5234375L1.1046289062499999,12.5234375L1.1046289062499999,8.9534375L2.20462890625,8.9534375Q2.74462890625,8.9534375,3.13962890625,9.153437499999999Q3.53462890625,9.3534375,3.74962890625,9.7409375Q3.96462890625,10.1284375,3.96462890625,10.7034375ZM3.48962890625,10.7184375Q3.48962890625,10.2434375,3.33212890625,9.9384375Q3.17462890625,9.6334375,2.87212890625,9.4859375Q2.56962890625,9.3384375,2.13962890625,9.3384375L1.55462890625,9.3384375L1.55462890625,12.1384375L2.03962890625,12.1384375Q2.76462890625,12.1384375,3.12712890625,11.7809375Q3.48962890625,11.4234375,3.48962890625,10.7184375ZM5.75962890625,12.5234375L4.46962890625,12.5234375L4.46962890625,12.2634375L4.88962890625,12.1684375L4.88962890625,9.3134375L4.46962890625,9.2134375L4.46962890625,8.9534375L5.75962890625,8.9534375L5.75962890625,9.2134375L5.33962890625,9.3134375L5.33962890625,12.1684375L5.75962890625,12.2634375L5.75962890625,12.5234375ZM8.47462890625,11.5684375Q8.47462890625,11.8884375,8.31962890625,12.1109375Q8.16462890625,12.333437499999999,7.87712890625,12.4534375Q7.58962890625,12.5734375,7.19962890625,12.5734375Q6.99962890625,12.5734375,6.81712890625,12.553437500000001Q6.63462890625,12.5334375,6.48462890625,12.4959375Q6.33462890625,12.458437499999999,6.21962890625,12.403437499999999L6.21962890625,11.9734375Q6.39962890625,12.053437500000001,6.66712890625,12.118437499999999Q6.93462890625,12.1834375,7.21962890625,12.1834375Q7.48462890625,12.1834375,7.66462890625,12.1134375Q7.84462890625,12.0434375,7.93462890625,11.9134375Q8.024628906250001,11.7834375,8.024628906250001,11.6084375Q8.024628906250001,11.4334375,7.94962890625,11.3134375Q7.87462890625,11.1934375,7.69212890625,11.090937499999999Q7.50962890625,10.9884375,7.18462890625,10.8734375Q6.95462890625,10.7884375,6.78212890625,10.6909375Q6.60962890625,10.5934375,6.49462890625,10.4684375Q6.37962890625,10.3434375,6.32212890625,10.1834375Q6.26462890625,10.0234375,6.26462890625,9.8134375Q6.26462890625,9.528437499999999,6.40962890625,9.3259375Q6.55462890625,9.1234375,6.81212890625,9.0134375Q7.06962890625,8.903437499999999,7.40462890625,8.903437499999999Q7.69962890625,8.903437499999999,7.94462890625,8.9584375Q8.18962890625,9.0134375,8.38962890625,9.1034375L8.249628906249999,9.4884375Q8.06462890625,9.4084375,7.84712890625,9.3534375Q7.62962890625,9.2984375,7.39462890625,9.2984375Q7.16962890625,9.2984375,7.01962890625,9.3634375Q6.86962890625,9.4284375,6.79462890625,9.5459375Q6.71962890625,9.6634375,6.71962890625,9.8184375Q6.71962890625,9.9984375,6.79462890625,10.1184375Q6.86962890625,10.2384375,7.03962890625,10.3334375Q7.20962890625,10.4284375,7.49962890625,10.5384375Q7.81462890625,10.653437499999999,8.03212890625,10.7859375Q8.249628906249999,10.9184375,8.36212890625,11.1034375Q8.47462890625,11.2884375,8.47462890625,11.5684375ZM10.72462890625,9.2984375Q10.43962890625,9.2984375,10.20962890625,9.3959375Q9.97962890625,9.4934375,9.81962890625,9.6809375Q9.65962890625,9.8684375,9.57462890625,10.1359375Q9.48962890625,10.403437499999999,9.48962890625,10.7384375Q9.48962890625,11.178437500000001,9.62712890625,11.5034375Q9.76462890625,11.8284375,10.03712890625,12.0034375Q10.30962890625,12.178437500000001,10.71962890625,12.178437500000001Q10.95462890625,12.178437500000001,11.16462890625,12.1384375Q11.37462890625,12.0984375,11.57462890625,12.0384375L11.57462890625,12.428437500000001Q11.37462890625,12.5034375,11.16212890625,12.5384375Q10.94962890625,12.5734375,10.65462890625,12.5734375Q10.10962890625,12.5734375,9.74462890625,12.3484375Q9.37962890625,12.1234375,9.19712890625,11.708437499999999Q9.01462890625,11.2934375,9.01462890625,10.7334375Q9.01462890625,10.3284375,9.12712890625,9.9934375Q9.23962890625,9.6584375,9.45712890625,9.4134375Q9.67462890625,9.1684375,9.99462890625,9.0359375Q10.31462890625,8.903437499999999,10.72962890625,8.903437499999999Q11.00462890625,8.903437499999999,11.25962890625,8.9584375Q11.51462890625,9.0134375,11.71462890625,9.1134375L11.53462890625,9.4934375Q11.36962890625,9.4184375,11.16712890625,9.3584375Q10.96462890625,9.2984375,10.72462890625,9.2984375Z" fill="#3D3D3D" fill-opacity="1"/></g><g><rect x="12.5" y="8" width="4.5" height="4.5" rx="2.25" fill="url(#master_svg0_18_06964)" fill-opacity="1"/></g><g><path d="M20.34765625,8.9534375L19.07265625,12.5234375L18.62265625,12.5234375L17.34765625,8.9534375L17.81765625,8.9534375L18.62265625,11.243437499999999Q18.67765625,11.3884375,18.71765625,11.5234375Q18.75765625,11.6584375,18.79015625,11.7809375Q18.82265625,11.903437499999999,18.84765625,12.0234375Q18.87265625,11.903437499999999,18.90515625,11.778437499999999Q18.93765625,11.653437499999999,18.98015625,11.518437500000001Q19.02265625,11.3834375,19.07265625,11.2334375L19.87265625,8.9534375L20.34765625,8.9534375ZM22.82765625,12.5234375L20.83265625,12.5234375L20.83265625,8.9534375L22.82765625,8.9534375L22.82765625,9.3484375L21.28265625,9.3484375L21.28265625,10.4634375L22.73765625,10.4634375L22.73765625,10.8534375L21.28265625,10.8534375L21.28265625,12.1284375L22.82765625,12.1284375L22.82765625,12.5234375ZM24.59765625,8.9534375Q25.04265625,8.9534375,25.33015625,9.0659375Q25.61765625,9.1784375,25.75765625,9.403437499999999Q25.89765625,9.6284375,25.89765625,9.9684375Q25.89765625,10.2534375,25.79265625,10.4434375Q25.68765625,10.6334375,25.525156250000002,10.7459375Q25.36265625,10.8584375,25.18265625,10.9234375L26.162656249999998,12.5234375L25.63765625,12.5234375L24.77265625,11.0484375L24.06265625,11.0484375L24.06265625,12.5234375L23.61265625,12.5234375L23.61265625,8.9534375L24.59765625,8.9534375ZM24.57265625,9.3434375L24.06265625,9.3434375L24.06265625,10.6684375L24.59765625,10.6684375Q25.03265625,10.6684375,25.232656249999998,10.4959375Q25.43265625,10.3234375,25.43265625,9.9884375Q25.43265625,9.7534375,25.34015625,9.6134375Q25.24765625,9.4734375,25.05765625,9.4084375Q24.86765625,9.3434375,24.57265625,9.3434375Z" fill="#3D3D3D" fill-opacity="1"/></g></g></svg>