<svg xmlns="http://www.w3.org/2000/svg" xmlns:xlink="http://www.w3.org/1999/xlink" fill="none" version="1.1" width="61.5" height="40.5" viewBox="0 0 61.5 40.5"><g><g><rect x="0" y="0" width="61.5" height="40.5" rx="5" fill="#FFFFFF" fill-opacity="1"/></g><g><path d="M15.6012803125,13.413511875000001C15.0294603125,14.037191875,14.1145603125,14.527721875000001,13.199650312500001,14.457651875C13.0852903125,13.616731875,13.5351203125,12.719751875,14.061190312499999,12.173151875C14.6330003125,11.535456875,15.6317703125,11.079960075,16.447560312500002,11.044921875C16.539050312500002,11.913869875,16.1654703125,12.775811875,15.6012803125,13.413511875000001ZM16.4323103125,14.618821875C15.1057003125,14.548741875000001,13.969700312499999,15.312581875,13.344510312499999,15.312581875C12.7040803125,15.312581875,11.7434303125,14.653861875,10.6912903125,14.674881875C9.3265603125,14.695901875,8.0609403125,15.403681875,7.3671373125,16.531911875C5.9337873125,18.795381875,6.9935513125,22.138021875,8.3811603125,23.981021875C9.0597103125,24.892021874999998,9.8678803125,25.894121875,10.935260312499999,25.859121875C11.949280312500001,25.824021875,12.3457403125,25.256421875,13.565610312499999,25.256421875C14.7931103125,25.256421875,15.1514503125,25.859121875,16.2188403125,25.845121875C17.3243703125,25.824021875,18.0181703125,24.934121875000002,18.6966703125,24.023121875C19.4667703125,22.985921875000003,19.7869703125,21.983821875,19.8021703125,21.927821875C19.7793703125,21.906821875,17.6674703125,21.163921875,17.6445703125,18.921521875C17.6216703125,17.043471875,19.3142703125,16.153491875,19.3904703125,16.097431874999998C18.4374703125,14.794011874999999,16.950770312499998,14.653861875,16.4323103125,14.618821875ZM24.0869703125,12.082051875L24.0869703125,25.739921875L26.3971703125,25.739921875L26.3971703125,21.072821875000002L29.5916703125,21.072821875000002C32.511770312500005,21.072821875000002,34.5550703125,19.229851875,34.5550703125,16.566951875C34.5550703125,13.904041875,32.5422703125,12.082051875,29.6679703125,12.082051875L24.0869703125,12.082051875ZM26.3971703125,13.869001875L29.0579703125,13.869001875C31.0631703125,13.869001875,32.2067703125,14.850071875,32.2067703125,16.573951875C32.2067703125,18.297841875,31.0631703125,19.292921874999998,29.0503703125,19.292921874999998L26.3971703125,19.292921874999998L26.3971703125,13.869001875ZM38.7635703125,25.845121875C40.2121703125,25.845121875,41.5540703125,25.172321875,42.1639703125,24.100121875L42.2097703125,24.100121875L42.2097703125,25.739921875L44.3444703125,25.739921875L44.3444703125,18.942541875C44.3444703125,16.973391875,42.6290703125,15.698001875,39.9910703125,15.698001875C37.5437703125,15.698001875,35.7291703125,16.987401875,35.6605703125,18.753331875L37.7419703125,18.753331875C37.9172703125,17.912411875,38.7635703125,17.358811875,39.9224703125,17.358811875C41.3329703125,17.358811875,42.1258703125,17.961471875,42.1258703125,19.075681875L42.1258703125,19.832511875L39.2439703125,19.993691875C36.5678703125,20.140851875,35.1192703125,21.149921875,35.1192703125,22.901821875C35.1268703125,24.667821875,36.6211703125,25.845121875,38.7635703125,25.845121875ZM39.3887703125,24.226321875C38.1612703125,24.226321875,37.3759703125,23.679721875,37.3759703125,22.852821875C37.3759703125,21.990821875,38.130770312500005,21.493321875,39.5717703125,21.416221874999998L42.1334703125,21.269121875L42.1334703125,22.039921874999997C42.1334703125,23.315321875000002,40.9517703125,24.226321875,39.3887703125,24.226321875ZM47.2035703125,29.454021875C49.4527703125,29.454021875,50.5124703125,28.662121875,51.4350703125,26.272521875000002L55.4834703125,15.831151875L53.1352703125,15.831151875L50.4209703125,23.896921875L50.3752703125,23.896921875L47.6610703125,15.831151875L45.2517703125,15.831151875L49.1553703125,25.775021875L48.9418703125,26.377621875000003C48.5911703125,27.400821875,48.0193703125,27.800221875,46.9977703125,27.800221875C46.8147703125,27.800221875,46.4640703125,27.779221875,46.3191703125,27.765121875L46.3191703125,29.404921875C46.4564703125,29.433021875,47.0282703125,29.454021875,47.2035703125,29.454021875Z" fill="#3D3D3D" fill-opacity="1" style="mix-blend-mode:passthrough"/></g></g></svg>