<svg xmlns="http://www.w3.org/2000/svg" xmlns:xlink="http://www.w3.org/1999/xlink" fill="none" version="1.1" width="28.5" height="20.5" viewBox="0 0 28.5 20.5"><g><g><rect x="0" y="0" width="28.5" height="20.5" rx="5" fill="#FFFFFF" fill-opacity="1"/></g><g><path d="M17.65777375,16.1516328125L11.15234375,16.1516328125L11.15234375,4.3486328125L17.65777375,4.3486328125L17.65777375,16.1516328125Z" fill="#6C6BBD" fill-opacity="1" style="mix-blend-mode:passthrough"/></g><g><path d="M11.741015625,10.24940875C11.741015625,7.93245875,12.848515625,5.90511875,14.560015625,4.65010875C13.251215625,3.68470675,11.640335625,3.10546875,9.928785625,3.10546875C5.800935625,3.10546875,2.478515625,6.29127875,2.478515625,10.24940875C2.478515625,14.20756875,5.800935625,17.39336875,9.928785625,17.39336875C11.640335625,17.39336875,13.251215625,16.81406875,14.560015625,15.84866875C12.848515625,14.59366875,11.741015625,12.56635875,11.741015625,10.24940875Z" fill="#EC001B" fill-opacity="1" style="mix-blend-mode:passthrough"/></g><g><path d="M26.3315,10.24940875C26.3315,14.20756875,23.0091,17.39336875,18.88125,17.39336875C17.1697,17.39336875,15.55883,16.81406875,14.25,15.84866875C15.961549999999999,14.49716875,17.069020000000002,12.46981875,17.069020000000002,10.24940875C17.069020000000002,8.02899875,15.961549999999999,5.90511875,14.25,4.65010875C15.55883,3.68470675,17.1697,3.10546875,18.88125,3.10546875C23.0091,3.10546875,26.3315,6.29127875,26.3315,10.24940875Z" fill="#0099DF" fill-opacity="1" style="mix-blend-mode:passthrough"/></g></g></svg>