<svg xmlns="http://www.w3.org/2000/svg" xmlns:xlink="http://www.w3.org/1999/xlink" fill="none" version="1.1" width="62" height="41" viewBox="0 0 62 41"><g><g><g><rect x="0" y="0" width="61.5" height="40.5" rx="5" fill="#FFFFFF" fill-opacity="1"/></g></g><g><path d="M29.66110265625,19.476154375L29.66110265625,24.697734375L28.02197265625,24.697734375L28.02197265625,11.803734375L32.35911265625,11.803734375C33.40365265625,11.779972675,34.414152656249996,12.180581375,35.16531265625,12.916244375C36.733212656250004,14.387794375,36.733212656250004,16.899844375,35.16531265625,18.371394375C34.41270265625,19.100804375,33.40359265625,19.495344375000002,32.36239265625,19.467294375L29.66110265625,19.467294375L29.66110265625,19.476154375ZM29.66110265625,13.387814375L29.66110265625,17.884324375L32.39299265625,17.884324375C33.000112656249996,17.900344375,33.58644265625,17.659714375,34.01136265625,17.220144375C34.43429265625,16.806804375,34.67129265625,16.235794375,34.66701265625,15.640494375C34.63729265625,14.390204375,33.62648265625,13.393294375,32.39189265625,13.396664375L29.66001265625,13.396664375L29.66110265625,13.387814375ZM40.618172656249996,15.585144375C41.66217265625,15.525784375,42.688372656249996,15.878504375,43.481172656249996,16.569244375C44.19877265625,17.271084375,44.58097265625,18.253434375,44.52917265625,19.262504375L44.52917265625,24.699934374999998L42.96977265625,24.699934374999998L42.96977265625,23.473434375L42.89657265625,23.473434375C42.32337265625,24.425634375,41.29617265625,25.000234374999998,40.19527265625,24.984434375C39.31267265625,25.014534375,38.451472656250004,24.706134374999998,37.78355265625,24.121034375C37.15529265625,23.586934375,36.79837265625,22.794234375000002,36.81209265625,21.963534375000002C36.78179265625,21.112724375,37.16367265625,20.300594375,37.83491265625,19.788324375000002C38.62777265625,19.210654375,39.59157265625,18.924414374999998,40.56677265625,18.976904375C41.39797265625,18.943284375,42.223472656249996,19.130674374999998,42.96097265625,19.520434375L42.96097265625,19.140734375C42.96637265625,18.573714375,42.71907265625,18.034454375,42.28787265625,17.672894375C41.854272656250004,17.275454375,41.28807265625,17.059454375,40.70337265625,17.068494375C39.82857265625,17.046604375,39.00677265625,17.492254375,38.53977265625,18.241884374999998L37.099482656250004,17.326414375C37.89202265625,16.163714374999998,39.22567265625,15.503744375,40.618172656249996,15.585144375ZM38.50477265625,21.988934375C38.50097265625,22.417834374999998,38.70517265625,22.821134375,39.05117265625,23.068234375C39.41297265625,23.355534374999998,39.86127265625,23.507934374999998,40.32097265625,23.500034375C41.01167265625,23.500234374999998,41.674072656250004,23.221334374999998,42.16107265625,22.725134375C42.67557265625,22.263334375,42.97037265625,21.600494375,42.97087265625,20.904144375C42.34937265625,20.462574375000003,41.59887265625,20.246484375,40.84107265625,20.290884374999997C40.250872656249996,20.270344375,39.66937265625,20.439694375000002,39.18007265625,20.774634374999998C38.76837265625,21.039284375,38.51487265625,21.495164375,38.50477265625,21.988934375ZM53.42417265625,15.869644375L47.97127265625,28.575434375L46.284072656250004,28.575434375L48.31227265625,24.132034375L44.71707265625,15.871854375L46.493872656250005,15.871854375L49.083772656250005,22.207034375L49.11647265625,22.207034375L51.63857265625,15.871854375L53.42417265625,15.869644375Z" fill="#3C4043" fill-opacity="1" style="mix-blend-mode:passthrough"/></g><g><g><path d="M24.304427506408693,20.380113800201414C24.304427506408693,19.789753800201417,24.253687506408692,19.219375800201416,24.15727750640869,18.675203800201416L16.10946750640869,18.675203800201416L16.10946750640869,21.905283800201417L20.71944750640869,21.905283800201417C20.528547506408692,22.948183800201416,19.91257750640869,23.868953800201417,19.01449750640869,24.453913800201416L19.01449750640869,26.550713800201414L21.76602750640869,26.550713800201414C23.37710750640869,25.090443800201417,24.304427506408693,22.931223800201415,24.304427506408693,20.380113800201414Z" fill="#4285F4" fill-opacity="1" style="mix-blend-mode:passthrough"/></g><g><path d="M16.110137956008913,28.574213462524412C18.41385795600891,28.574213462524412,20.35222795600891,27.831593462524413,21.76672795600891,26.551043462524415L19.01512795600891,24.452983462524415C18.25020795600891,24.959713462524412,17.264537956008912,25.255513462524412,16.11012795600891,25.255513462524412C13.885057956008911,25.255513462524412,11.994887956008911,23.780263462524413,11.320007956008912,21.793283462524414L8.486027956008911,21.793283462524414L8.486027956008911,23.953743462524415C9.93559795600891,26.787483462524413,12.88510795600891,28.575463462524414,16.110137956008913,28.575463462524414" fill="#34A853" fill-opacity="1" style="mix-blend-mode:passthrough"/></g><g><path d="M11.319721874999999,21.79281596572876C10.963721875000001,20.75143596572876,10.963721875000001,19.62407596572876,11.319721874999999,18.58269596572876L11.319721874999999,16.42223596572876L8.485739875,16.42223596572876C7.886632875,17.58942596572876,7.575050115,18.87892596572876,7.57617497738,20.18650596572876C7.57617497738,21.54069596572876,7.906002875,22.819995965728758,8.485739875,23.952025965728758L11.319721874999999,21.791565965728758L11.319721874999999,21.79281596572876Z" fill="#FABB05" fill-opacity="1" style="mix-blend-mode:passthrough"/></g><g><path d="M16.11056543668747,15.121434375C17.368985436687467,15.121434375,18.49542543668747,15.545784375,19.383425436687467,16.379514375L19.383425436687467,16.380764375L21.81912543668747,13.986914375C20.342525436687467,12.633969375,18.41428543668747,11.8027344553243,16.11183543668747,11.8027344553243C12.88738543668747,11.802311267,9.937955436687469,13.589764375,8.48772543668747,16.423204375L11.32171543668747,18.583664374999998C11.99658543668747,16.596684375,13.88675543668747,15.121434375,16.11183543668747,15.121434375" fill="#E94235" fill-opacity="1" style="mix-blend-mode:passthrough"/></g></g></g></svg>