<svg xmlns="http://www.w3.org/2000/svg" xmlns:xlink="http://www.w3.org/1999/xlink" fill="none" version="1.1" width="28.5" height="20.5" viewBox="0 0 28.5 20.5"><g><g><rect x="0" y="0" width="28.5" height="20.5" rx="5" fill="#FFFFFF" fill-opacity="1"/></g><g><path d="M24.3024015625,17.9943503125C24.3878015625,18.0771803125,24.3878015625,18.0771803125,24.3024015625,17.9943503125C24.3878015625,18.0771803125,24.3878015625,18.0771803125,24.3024015625,17.9943503125C24.3878015625,18.0771803125,24.3878015625,17.9943503125,24.3024015625,17.9943503125C24.3878015625,17.9943503125,24.3878015625,17.9943503125,24.3024015625,17.9943503125ZM24.3878015625,17.9943503125C24.3878015625,18.0771803125,24.3878015625,18.0771803125,24.3878015625,17.9943503125L24.3878015625,18.0771803125L24.4731015625,18.1600103125L24.3878015625,18.0771803125L24.3878015625,18.1600103125L24.3878015625,17.9943503125ZM24.3878015625,18.1600103125L24.4731015625,18.1600103125L24.4731015625,18.0771803125L24.3878015625,18.0771803125L24.3024015625,18.0771803125Q24.2170015625,18.1600103125,24.3024015625,18.2428403125C24.3024015625,18.1600103125,24.3024015625,18.1600103125,24.3878015625,18.1600103125C24.3024015625,18.1600103125,24.3024015625,18.1600103125,24.3878015625,18.1600103125ZM24.3878015625,17.9115303125C24.4731015625,17.9115303125,24.4731015625,17.9115303125,24.4731015625,17.9943503125L24.4731015625,18.3256703125L24.3878015625,18.3256703125L24.3024015625,18.3256703125L24.2170015625,18.3256703125L24.1317015625,18.3256703125L24.1317015625,18.2428403125L24.1317015625,18.0771803125L24.1317015625,17.9943603125C24.2170015625,17.9115303125,24.3024015625,17.9115303125,24.3878015625,17.9115303125C24.3024015625,17.9115303125,24.3024015625,17.9115303125,24.3878015625,17.9115303125ZM8.6810915625,17.3317303125C8.6810915625,17.0832503125,8.8518215625,16.8347603125,9.1932715625,16.8347603125C9.5347215625,16.8347603125,9.705441562499999,17.0832403125,9.705441562499999,17.3317303125C9.705441562499999,17.5802203125,9.5347215625,17.8287003125,9.1932715625,17.8287003125C8.8518215625,17.8287003125,8.6810915625,17.5802203125,8.6810915625,17.3317303125ZM10.0468915625,17.3317303125L10.0468915625,16.5034473125L9.705441562499999,16.5034473125L9.705441562499999,16.6691033125C9.620081562500001,16.5034473125,9.4493515625,16.4206193125,9.1932715625,16.4206193125C8.6810915625,16.4206193125,8.3396415625,16.7519333125,8.3396415625,17.248900312499998C8.3396415625,17.7458703125,8.6810915625,18.0771803125,9.1932715625,18.0771803125C9.4493515625,18.0771803125,9.620081562500001,17.9943603125,9.705441562499999,17.8287003125L9.705441562499999,17.9943603125L10.0468915625,17.9943603125L10.0468915625,17.3317303125ZM22.4244015625,17.3317303125C22.4244015625,17.0832503125,22.5951015625,16.8347603125,22.9366015625,16.8347603125C23.2780015625,16.8347603125,23.4488015625,17.0832403125,23.4488015625,17.3317303125C23.4488015625,17.5802203125,23.2780015625,17.8287003125,22.9366015625,17.8287003125C22.5951015625,17.8287003125,22.4244015625,17.5802203125,22.4244015625,17.3317303125ZM23.7049015625,17.3317303125L23.7049015625,15.8408203125L23.3634015625,15.8408203125L23.3634015625,16.6691023125C23.2780015625,16.5034463125,23.1073015625,16.4206183125,22.8512015625,16.4206183125C22.3391015625,16.4206183125,21.9976015625,16.7519323125,21.9976015625,17.248900312499998C21.9976015625,17.7458703125,22.3391015625,18.0771803125,22.8512015625,18.0771803125C23.1073015625,18.0771803125,23.2780015625,17.9943503125,23.3634015625,17.8287003125L23.3634015625,17.9943503125L23.7049015625,17.9943503125L23.7049015625,17.3317303125ZM14.5710915625,16.7519323125C14.8271815625,16.7519323125,14.9979015625,16.9175903125,14.9979015625,17.1660703125L14.1442815625,17.1660703125C14.1442815625,16.9175903125,14.3150015625,16.7519323125,14.5710915625,16.7519323125ZM14.5710915625,16.4206183125C14.0589215625,16.4206183125,13.7174715625,16.7519323125,13.7174715625,17.248900312499998C13.7174715625,17.7458703125,14.0589215625,18.0771803125,14.5710915625,18.0771803125C14.8271815625,18.0771803125,15.0832715625,17.9943503125,15.2539915625,17.8287003125L15.0832715625,17.6630403125C14.9125415625,17.7458703125,14.7418215625,17.8287003125,14.5710915625,17.8287003125C14.3150015625,17.8287003125,14.1442815625,17.7458703125,14.0589215625,17.4145603125L15.3394015625,17.4145603125L15.3394015625,17.248900312499998C15.3394015625,16.8347593125,15.0832615625,16.4206183125,14.5710915625,16.4206183125ZM19.009901562499998,17.3317303125C19.009901562499998,17.0832403125,19.180701562499998,16.8347593125,19.522101562499998,16.8347593125C19.8636015625,16.8347593125,20.034301562499998,17.0832403125,20.034301562499998,17.3317303125C20.034301562499998,17.6630403125,19.8636015625,17.8287003125,19.522101562499998,17.8287003125C19.180701562499998,17.8287003125,19.009901562499998,17.5802103125,19.009901562499998,17.3317303125ZM20.375701562499998,17.3317303125L20.375701562499998,16.5034463125L20.034301562499998,16.5034463125L20.034301562499998,16.6691023125C19.948901562499998,16.5034463125,19.7782015625,16.4206183125,19.522101562499998,16.4206183125C19.009901562499998,16.4206183125,18.668501562499998,16.7519323125,18.668501562499998,17.248900312499998C18.668501562499998,17.7458703125,19.009901562499998,18.0771803125,19.522101562499998,18.0771803125C19.7782015625,18.0771803125,19.948901562499998,17.9943503125,20.034301562499998,17.8287003125L20.034301562499998,17.9943503125L20.375701562499998,17.9943503125L20.375701562499998,17.3317303125ZM16.9612015625,17.3317303125C16.9612015625,17.8287003125,17.302701562499998,18.1600103125,17.9002015625,18.1600103125C18.156301562499998,18.1600103125,18.3270015625,18.0771803125,18.4978015625,17.9943503125L18.241701562499998,17.6630403125C18.070901562499998,17.7458703125,17.9856015625,17.8287003125,17.814901562499998,17.8287003125C17.5588015625,17.8287003125,17.302701562499998,17.5802103125,17.302701562499998,17.3317303125C17.302701562499998,17.0832403125,17.5588015625,16.8347583125,17.814901562499998,16.8347583125C17.9856015625,16.8347583125,18.156301562499998,16.9175903125,18.241701562499998,17.0004103125L18.4124015625,16.7519303125C18.241701562499998,16.5862743125,18.070901562499998,16.5862743125,17.814901562499998,16.5862743125C17.302701562499998,16.4206173125,16.9612015625,16.8347583125,16.9612015625,17.3317303125ZM21.6562015625,16.4206163125C21.4854015625,16.4206163125,21.3147015625,16.5034443125,21.229301562499998,16.6691013125L21.229301562499998,16.5034443125L20.887901562499998,16.5034443125L20.887901562499998,18.1600103125L21.229301562499998,18.1600103125L21.229301562499998,17.248900312499998C21.229301562499998,17.0004203125,21.3147015625,16.8347583125,21.5708015625,16.8347583125L21.8269015625,16.8347583125L21.9122015625,16.5034443125C21.8269015625,16.5034443125,21.7415015625,16.4206163125,21.6562015625,16.4206163125ZM11.8395015625,16.6691013125C11.6687715625,16.5862723125,11.412691562500001,16.5034443125,11.1566015625,16.5034443125C10.7297915625,16.5034443125,10.4737015625,16.6691013125,10.4737015625,17.0004103125C10.4737015625,17.248900312499998,10.6444215625,17.4145603125,11.0712415625,17.4973803125L11.2419615625,17.4973803125C11.412691562500001,17.4973803125,11.498051562499999,17.5802103125,11.498051562499999,17.6630403125C11.498051562499999,17.8287003125,11.3273315625,17.8287003125,11.1566015625,17.8287003125C10.9005115625,17.8287003125,10.7297915625,17.7458703125,10.5590615625,17.6630403125L10.388341562499999,17.9115203125C10.5590615625,18.0771803125,10.815151562499999,18.1600103125,11.1566015625,18.1600103125C11.6687715625,18.1600103125,11.9248615625,17.9115203125,11.9248615625,17.6630403125C11.9248615625,17.4145503125,11.6687715625,17.248900312499998,11.3273215625,17.1660703125L11.1566015625,17.1660703125C10.9858715625,17.1660703125,10.9005115625,17.0832403125,10.9005115625,17.0004103125C10.9005115625,16.9175803125,10.9858715625,16.8347573125,11.2419615625,16.8347573125C11.498051562499999,16.8347573125,11.6687715625,16.9175803125,11.7541415625,17.0004103125L11.8395015625,16.6691013125ZM16.5344015625,16.4206163125C16.363701562499998,16.4206163125,16.1930015625,16.5034443125,16.1076015625,16.6691013125L16.1076015625,16.5034443125L15.7662015625,16.5034443125L15.7662015625,18.1600103125L16.1076015625,18.1600103125L16.1076015625,17.248900312499998C16.1076015625,17.0004203125,16.1930015625,16.8347583125,16.449101562499997,16.8347583125L16.705101562499998,16.8347583125L16.790501562499998,16.5034443125C16.705101562499998,16.5034443125,16.6198015625,16.4206163125,16.5344015625,16.4206163125ZM13.4613815625,16.5034443125L12.863851562499999,16.5034443125L12.863851562499999,16.0064763125L12.4370315625,16.0064763125L12.4370315625,16.5034463125L12.0955815625,16.5034463125L12.0955815625,16.8347603125L12.4370315625,16.8347603125L12.4370315625,17.5802103125C12.4370315625,17.9943603125,12.6077615625,18.1600103125,13.0345715625,18.1600103125C13.205291562500001,18.1600103125,13.3760215625,18.0771803125,13.4613815625,17.9943603125L13.3760215625,17.6630403125C13.2906615625,17.7458703125,13.1199315625,17.7458703125,13.0345715625,17.7458703125C12.863851562499999,17.7458703125,12.7784815625,17.6630403125,12.7784815625,17.4973903125L12.7784815625,16.8347593125L13.3760215625,16.8347593125L13.3760215625,16.5034453125L13.4613815625,16.5034443125ZM7.998191562500001,18.1600103125L7.998191562500001,17.1660703125C7.998191562500001,16.7519293125,7.7421115625,16.5034443125,7.3153015625,16.5034443125C7.0592115625,16.5034443125,6.8884815625,16.5862723125,6.7177615625,16.8347583125C6.6324015625,16.6691023125,6.4616715625,16.5034443125,6.1202245625,16.5034443125C5.9494995625,16.5034443125,5.7787755625,16.5862723125,5.6080505625,16.7519293125L5.6080505625,16.5862723125L5.2666015625,16.5862723125L5.2666015625,18.2428403125L5.6080505625,18.2428403125L5.6080505625,17.3317303125C5.6080505625,17.0832403125,5.7787755625,16.9175803125,6.0348625625,16.9175803125C6.2909515625,16.9175803125,6.3763115625,17.0832403125,6.3763115625,17.3317303125L6.3763115625,18.2428403125L6.8031215625,18.2428403125L6.8031215625,17.3317303125C6.8031215625,17.0832403125,6.9738515625,16.9175803125,7.2299315625,16.9175803125C7.4860215624999995,16.9175803125,7.5713815625,17.0832403125,7.5713815625,17.3317303125L7.5713815625,18.2428403125L7.998191562500001,18.1600103125Z" fill="#231F20" fill-opacity="1" style="mix-blend-mode:passthrough"/></g><g><path d="M24.4728689375,12.734434125L24.4728689375,12.423828125L24.4212379375,12.423828125L24.3696069375,12.630899125L24.3179759375,12.423828125L24.2663449375,12.423828125L24.2663449375,12.734434125L24.3179759375,12.734434125L24.3179759375,12.527363125L24.3696069375,12.734434125L24.4212379375,12.734434125L24.4728689375,12.527363125L24.4728689375,12.734434125ZM24.2147158375,12.734434125L24.2147158375,12.527363125L24.2663469375,12.527363125L24.1630859375,12.527363125L24.2147158375,12.527363125L24.2147158375,12.734434125Z" fill="#F79410" fill-opacity="1" style="mix-blend-mode:passthrough"/></g><g><path d="M17.037784375,13.6659525L11.771484375,13.6659525L11.771484375,3.7265625L17.037784375,3.7265625L17.037784375,13.6659525Z" fill="#FF5F00" fill-opacity="1" style="mix-blend-mode:passthrough"/></g><g><path d="M12.10234375,8.541248125C12.10234375,6.476138125,13.06783375,4.669168125000001,14.55994375,3.550568125C13.41892375,2.690106125,12.01457375,2.173828125,10.52245375,2.173828125C6.92381375,2.173828125,4.02734375,5.013358125,4.02734375,8.541248125C4.02734375,12.069148125,6.92381375,14.908628125,10.52245375,14.908628125C12.01457375,14.908628125,13.41892375,14.392428125,14.55994375,13.531928125C13.06783375,12.413328125,12.10234375,10.606358125,12.10234375,8.541248125Z" fill="#EB001B" fill-opacity="1" style="mix-blend-mode:passthrough"/></g><g><path d="M24.782600000000002,8.541248125C24.782600000000002,12.069148125,21.88614,14.908628125,18.2875,14.908628125C16.79538,14.908628125,15.39103,14.392428125,14.25,13.531928125C15.74212,12.327328125,16.70761,10.520318125,16.70761,8.541248125C16.70761,6.562188125,15.74212,4.669168125000001,14.25,3.550568125C15.39103,2.690106125,16.79538,2.173828125,18.2875,2.173828125C21.88614,2.173828125,24.782600000000002,5.013358125,24.782600000000002,8.541248125Z" fill="#F79E1B" fill-opacity="1" style="mix-blend-mode:passthrough"/></g></g></svg>