<svg xmlns="http://www.w3.org/2000/svg" xmlns:xlink="http://www.w3.org/1999/xlink" fill="none" version="1.1" width="28.5" height="20.5" viewBox="0 0 28.5 20.5"><g><g><rect x="0" y="0" width="28.5" height="20.5" rx="5" fill="#FFFFFF" fill-opacity="1"/></g><g><path d="M23.9315859375,6.6487065C23.4423859375,6.6487065,22.9720859375,6.6480165,22.5018859375,6.6490525C21.9869859375,6.6500875,21.7567859375,6.8078165,21.5556859375,7.2972255C20.8785859375,8.9452675,20.2010859375,10.593317500000001,19.5250859375,12.2417075C19.3080859375,12.7711475,19.0943859375,13.302317500000001,18.8733859375,13.8479875L20.7722859375,13.8479875C20.9022859375,13.4873175,21.0264859375,13.142177499999999,21.1520859375,12.7942675L23.5056859375,12.7942675C23.5824859375,13.1490775,23.6583859375,13.498357500000001,23.7341859375,13.8479875L25.4021859375,13.8479875C24.9102859375,11.4392475,24.4230859375,9.0532975,23.9315859375,6.6487065ZM21.6764859375,11.308787500000001C21.9940859375,10.4128075,22.3014859375,9.5451275,22.6091859375,8.6774375C22.6301859375,8.6791675,22.6511859375,8.6808975,22.6721859375,8.6829675L23.2077859375,11.308787500000001L21.6764859375,11.308787500000001ZM9.4421259375,6.6566445C8.8188659375,8.2649975,8.1969559375,9.869557499999999,7.5753859375,11.474107499999999C7.5584559375,11.4748075,7.5415259375,11.4758375,7.5249359375,11.4765275C7.5073359375,11.401977500000001,7.4866859375,11.3277775,7.4728059375,11.2521875C7.2344659375,9.9585975,6.9988359375,8.6646675,6.7577959375,7.3717755C6.677895937500001,6.9431115,6.3711759375,6.6545745,5.9530659375,6.6500875C4.9171159375,6.6383525,3.8808259375,6.6462915,2.8482649375,6.6462915C2.8035766375,6.7087615,2.7663368375,6.7639845,2.8028999375,6.8502695C3.3584539375,6.9972995000000004,3.9177359375,7.1501965,4.4485759375,7.3983525C4.7590159375,7.5433075,4.9303259375,7.7704175,5.0129259375,8.1048575C5.3524859375,9.4809275,5.7035659375000005,10.8538975,6.0512459375,12.2275575C6.1893759374999995,12.7735675,6.3302159375,13.3192275,6.4679959375,13.8590375L8.4021159375,13.8590375C9.3838959375,11.463407499999999,10.3639859375,9.0719375,11.3535659375,6.6566465L9.4421259375,6.6566445ZM18.1447859375,10.0093375C17.903385937499998,9.8195075,17.6342859375,9.6766275,17.3671859375,9.5295875C17.0932859375,9.3791075,16.8044859375,9.2510675,16.5725859375,9.0325875C16.2844859375,8.7609675,16.3145859375,8.4341175,16.6439859375,8.2152975C16.8552859375,8.0748275,17.0922859375,8.0296175,17.3407859375,8.0178775C17.8962859375,7.9916475,18.4223859375,8.1227975,18.9589859375,8.3454175C19.0652859375,7.8318475,19.1668859375,7.3407125,19.2700859375,6.8412955C18.488785937499998,6.52687331,17.706685937499998,6.468889,16.9114859375,6.5669087C16.3521859375,6.6359365,15.8328859375,6.8267995,15.3703859375,7.1674525C14.3973859375,7.8846575,13.9803859375,9.513367500000001,15.3994859375,10.4580175C15.6178859375,10.603327499999999,15.8480859375,10.7299875,16.0745859375,10.8621775C16.2719859375,10.977107499999999,16.4787859375,11.0765075,16.6683859375,11.2028275C16.8860859375,11.347787499999999,17.0719859375,11.5307175,17.0312859375,11.8320175C16.989985937500002,12.1350575,16.773685937499998,12.2810475,16.5180859375,12.3783775C16.1517859375,12.5178175,15.7729859375,12.4974475,15.3940859375,12.4570675C14.9285859375,12.4073675,14.4972859375,12.2396375,14.0602859375,12.031167499999999C13.9491859375,12.5623375,13.8421859375,13.072457499999999,13.7328859375,13.5943075C14.4281859375,13.9090775,15.6002859375,14.0502375,16.3961859375,13.9418675C17.0956859375,13.8462575,17.7425859375,13.6343475,18.2720859375,13.132517499999999C19.2115859375,12.2430875,19.1526859375,10.802467499999999,18.1447859375,10.0093375ZM12.1538859375,6.6562995C11.6497859375,9.0629675,11.1494159375,11.4537475,10.6459959375,13.857647499999999L12.4646659375,13.857647499999999C12.9660859375,11.4589275,13.4660859375,9.0667575,13.9698859375,6.6562995L12.1538859375,6.6562995Z" fill="#142C97" fill-opacity="1" style="mix-blend-mode:passthrough"/></g></g></svg>