<svg width="983" height="384" viewBox="0 0 983 384" fill="none" xmlns="http://www.w3.org/2000/svg">
<path d="M256.726 189.982C256.278 147.552 293.899 127.209 295.589 126.182C274.444 97.4089 241.501 93.4591 229.786 93.0085C201.771 90.3602 175.101 108.366 160.879 108.366C146.694 108.366 124.744 93.3966 101.512 93.7784C70.9549 94.2016 42.7931 110.317 27.0645 135.784C-4.66998 187.026 18.9442 262.968 49.8736 304.562C64.9939 324.896 83.0196 347.765 106.671 346.929C129.469 346.092 138.076 333.209 165.626 333.209C193.194 333.209 200.923 346.929 225.034 346.505C249.549 346.092 265.089 325.79 280.09 305.383C297.451 281.764 304.594 258.887 305.023 257.736C304.474 257.49 257.218 240.637 256.726 189.982ZM211.415 65.4814C223.972 51.3065 232.454 31.6117 230.146 12C212.047 12.6804 190.134 23.1979 177.136 37.3568C165.494 49.92 155.317 69.934 158.037 89.1896C178.235 90.6542 198.84 79.6289 211.415 65.4814Z" fill="white"/>
<path d="M463.088 296.651H497.748V206.233C503.475 207.438 510.106 207.74 517.339 207.74C558.932 207.74 603.538 188.45 603.538 132.391C603.538 111.293 595.702 93.8121 582.742 82.6605C568.878 70.3033 547.479 64.2754 519.147 64.2754C495.337 64.2754 476.952 66.3852 463.088 68.7963V296.651ZM497.748 93.8121C502.269 92.908 510.407 91.7024 521.257 91.7024C549.287 91.7024 568.576 105.868 568.576 133.898C568.576 163.434 549.287 180.011 517.339 180.011C509.201 180.011 502.872 179.71 497.748 178.203V93.8121ZM753.934 194.478C753.934 159.215 740.372 126.966 691.546 126.966C669.242 126.966 649.652 133.295 637.897 140.83L645.131 164.037C655.679 157.105 670.749 152.584 685.518 152.584C718.973 152.584 718.973 177.299 718.973 189.656C662.009 189.656 626.143 210.151 626.143 251.442C626.143 277.061 643.925 299.967 674.969 299.967C695.765 299.967 712.04 290.322 721.384 277.362H722.288L724.699 296.651H756.346C754.236 285.801 753.934 271.334 753.934 257.168V194.478ZM719.877 240.592C719.877 259.881 704.204 274.348 685.216 274.348C672.256 274.348 660.803 266.21 660.803 247.825C660.803 218.288 692.45 213.165 719.877 213.165V240.592ZM892.576 130.582L865.752 224.015C862.738 235.167 859.423 247.524 857.012 257.168H856.107C853.696 247.524 850.381 234.865 847.066 224.015L816.926 130.582H778.649L835.613 283.691C837.12 287.007 837.421 289.116 837.421 290.925C837.421 295.446 824.461 329.202 788.293 342.162L797.335 371.699C805.473 369.89 820.844 364.164 835.914 350.3C855.806 331.01 869.67 300.268 889.261 245.715L929.346 130.582H892.576Z" fill="white"/>
</svg>
