<?xml version="1.0" standalone="no"?><!DOCTYPE svg PUBLIC "-//W3C//DTD SVG 1.1//EN" "http://www.w3.org/Graphics/SVG/1.1/DTD/svg11.dtd"><svg t="1747972163364" class="icon" viewBox="0 0 1152 1024" version="1.1" xmlns="http://www.w3.org/2000/svg" p-id="7753" xmlns:xlink="http://www.w3.org/1999/xlink" width="225" height="200"><path d="M0 754.2784a576 269.7216 0 1 0 1152 0 576 269.7216 0 1 0-1152 0Z" fill="#13227a" opacity=".05" p-id="7754"></path><path d="M574.3744 169.8176l-334.592 86.3488c91.392 36.6976 278.0288 113.1008 293.5808 116.5568l41.0112-10.9824V169.8176z" fill="#13227a" opacity=".46" p-id="7755"></path><path d="M574.3744 169.8176l373.44 86.3488-373.44 105.5744V169.8176zM533.3632 372.736c-15.5392-3.456-202.1888-79.872-293.568-116.5696-17.28 31.6544-57.856 101.0176-73.3952 125.184 21.5808 17.28 256.8704 107.9424 295.7312 123.0464 8.6272-4.3136 51.8016-84.1856 71.232-131.6736z" fill="#13227a" opacity=".26" p-id="7756"></path><path d="M318.0032 287.744c92.6208 37.4784 203.52 82.3552 215.36 84.992-19.4304 47.488-62.592 127.3472-71.232 131.6608l-9.5616-3.712c-38.144-14.784-140.992-54.6816-212.7744-84.8896v263.4496l293.568 116.5696V372.7232l-293.568-116.5568c21.8368 8.768 49.1264 19.8016 78.208 31.5776z" fill="#13227a" opacity=".46" p-id="7757"></path><path d="M533.3632 372.736l414.4512-116.5696s45.3248 116.5568 36.6976 157.568c-43.1744 12.9536-356.1728 118.7328-410.1376 136 0-41.0112-41.0112-177.0112-41.0112-177.0112z" fill="#13227a" opacity=".12" p-id="7758"></path><path d="M947.8144 425.4976a42372.16 42372.16 0 0 0-207.4624 69.0432c-74.9056 25.0496-143.3088 47.936-165.9776 55.1936 0-41.024-41.0112-177.0112-41.0112-177.0112v423.0912l414.4512-116.5696V425.4976z" fill="#13227a" opacity=".08" p-id="7759"></path><path d="M794.0608 28.2496c-8.6528 1.0752-16.9728 2.3808-24.9856 3.8912l-2.368-12.5824a418.0864 418.0864 0 0 1 25.7664-4.0064l1.5872 12.6976z m37.9904-3.1104c-4.3136 0.1792-8.5504 0.4096-12.736 0.6912l-0.8576-12.7744c4.288-0.2816 8.64-0.512 13.056-0.704a6.4 6.4 0 0 1 0.5376 12.7872z m-87.6416 12.5312c-8.448 2.2144-16.4992 4.6592-24.1536 7.296l-4.1856-12.0832a339.328 339.328 0 0 1 25.1008-7.5904l3.2384 12.3776z m-47.5392 16.5248c-8 3.5712-15.488 7.36-22.464 11.3024l-6.3104-11.136a274.4704 274.4704 0 0 1 23.552-11.8528l5.2224 11.6864zM653.312 78.976c-7.1424 5.12-13.5936 10.3936-19.3792 15.7184l-8.6656-9.4208c6.1696-5.6832 13.0176-11.2768 20.5824-16.704l7.4624 10.4064zM616.832 112.6656a142.72 142.72 0 0 0-13.9904 20.224l-11.136-6.2848c4.032-7.1424 9.088-14.5664 15.232-22.0544l9.8944 8.1152z m-23.2576 42.3168a44.992 44.992 0 0 0-1.5744 11.0976c0 3.456 0.512 6.656 1.4464 9.6128l-12.224 3.84a44.992 44.992 0 0 1-2.0224-13.4272c0-4.3648 0.6656-9.1904 1.984-14.3104l12.3904 3.2z m113.536 3.3152c-3.392 0.384-7.04 0.96-10.9184 1.7024a79.3984 79.3984 0 0 0-10.6624 2.8544l-4.1344-12.1216c4.096-1.3952 8.2432-2.5088 12.3904-3.3024 4.16-0.8064 8.1024-1.408 11.84-1.856l1.4848 12.7232z m37.0944 6.9632c-2.176-2.8672-6.8864-5.888-15.8976-7.1424l1.7536-12.672c10.9312 1.5104 19.3792 5.5296 24.3328 12.0832l-10.2016 7.7312z m-79.1296 7.1424c-6.3488 3.712-12.6976 8.1024-19.0208 13.0176l-7.8592-10.0992a187.776 187.776 0 0 1 20.416-13.952l6.464 11.0336z m-44.416 35.7632c2.56-2.5728 5.1328-5.0944 7.7312-7.5392l-8.768-9.3184c-2.1504 2.0224-4.2752 4.0832-6.4 6.1824a53.0688 53.0688 0 0 1-8.6656-5.8496l-8.2176 9.8176c2.3808 1.9968 4.9536 3.8272 7.7056 5.504l-1.536 1.664 9.3824 8.6784c1.3696-1.472 2.752-2.944 4.1344-4.3904l2.5216 0.9728 2.0992-5.7216z m109.0944-14.2848c6.6176-4.4416 11.2128-9.4208 13.824-14.08l11.1616 6.2592c-3.776 6.7584-9.9328 13.1328-17.8432 18.432l-7.1424-10.624zM644.352 207.104c6.9888 1.0112 14.4768 1.5104 22.336 1.472l0.064 12.8a163.584 163.584 0 0 1-24.2432-1.6128l1.8432-12.672z m56.064-1.792c3.648-0.6656 7.104-1.536 10.368-2.5344l3.8016 12.224a101.9008 101.9008 0 0 1-11.8528 2.9056c-4.0064 0.7296-7.9616 1.344-11.904 1.8432l-1.6128-12.6976c3.6992-0.4608 7.424-1.0496 11.2-1.7408z m-104 29.7216c-5.056 6.1056-9.9328 12.3264-14.6176 18.5344l-10.2272-7.6928c4.7872-6.3616 9.8048-12.736 14.9888-19.008l9.856 8.1664z m-28.4416 37.7216a596.736 596.736 0 0 0-13.056 19.7376l-10.816-6.848a612.096 612.096 0 0 1 13.3376-20.16l10.5344 7.2704z m-25.2672 39.936c-2.0736 3.6352-3.9936 7.0784-5.7088 10.2784a6.4 6.4 0 1 1-11.2768-6.0544c1.792-3.328 3.7504-6.8608 5.888-10.5856l11.0976 6.3616z" fill="#13227a" p-id="7760"></path></svg>