<svg width="926" height="384" viewBox="0 0 926 384" fill="none" xmlns="http://www.w3.org/2000/svg">
<path d="M494.365 33.4305C461.906 30.8103 429.311 32.8658 396.784 32.4141C395.497 32.4141 394.141 32.3915 393.848 33.2724V296.425H426.104V189.47C429.673 189.47 432.248 189.515 434.8 189.47C454.813 188.928 474.849 190.306 494.862 188.612C528.812 185.675 567.032 154.323 565.563 108.085C564.208 67.3581 528.587 36.2089 494.365 33.4305ZM493.146 157.124C489.712 157.734 486.234 158.027 482.755 158.027H426.442V65.3703C428.204 63.5181 430.328 63.9698 432.293 64.015C450.476 64.1731 468.66 64.2183 486.843 64.6249C509.274 65.1444 529.942 84.6155 531.455 106.368C533.217 131.441 516.931 152.945 493.146 157.124ZM694.316 123.241C676.291 111.789 656.142 109.53 635.497 110.818C619.323 111.812 604.099 116.42 590.772 126.2C583.679 131.441 577.467 137.517 572.498 145.31L601.163 163.223C622.237 135.236 653.522 136.117 670.689 145.559C687.969 155.091 697.208 172.823 693.503 190.057C692.893 190.103 692.713 190.148 692.554 190.103C691.877 189.877 691.199 189.651 690.522 189.357C664.213 177.59 634.401 176.329 607.194 185.833C564.954 200.064 557.793 241.536 573.063 269.41C593.708 307.132 658.04 317.003 687.653 277.112C689.098 275.192 690.092 272.595 693.797 271.759V296.154H724.991C725.172 294.912 725.353 294.189 725.353 293.444C725.307 254.479 725.962 215.469 724.901 176.482C724.268 154.007 713.81 135.642 694.316 123.241ZM651.986 271.714C637.778 275.215 624.293 273.995 612.186 265.028C597.616 254.231 595.854 234.827 608.3 221.613C615.348 214.136 624.225 209.98 634.164 208.015C650.453 204.679 667.369 206.3 682.729 212.668C686.614 214.249 690.296 216.327 693.571 219.445C694.746 242.033 675.726 265.841 652.009 271.691L651.986 271.714ZM876.378 117.143L823.883 246.822L822.121 246.596L768.451 117.007H732.626L807.099 286.057L765.13 376.907H799.081L912.474 116.239C899.598 116.42 888.078 115.923 876.355 117.097L876.378 117.143Z" fill="white"/>
<path d="M64.7596 163.245C64.7596 153.306 66.2052 143.684 68.9384 134.648L17.6179 94.1477C6.92307 115.415 1.37538 138.898 1.42217 162.703C1.42217 187.324 7.20476 210.861 17.5276 231.823L68.8706 191.458C66.129 182.297 64.744 172.785 64.7596 163.223V163.245Z" fill="#FFB900"/>
<path d="M157.01 70.9948C178.119 71.3318 198.331 79.5874 213.639 94.1252L255.947 50.0103C230.399 25.0278 195.523 9.89363 155.339 9.89363C126.823 9.77642 98.8372 17.5949 74.5113 32.4745C50.1853 47.3541 30.4787 68.708 17.5957 94.1477L68.9162 134.626C80.1651 97.3553 113.189 69.9783 157.01 70.9722V70.9948Z" fill="#FE2727"/>
<path d="M157.011 255.496C113.077 255.496 79.9849 228.616 68.8715 191.458L17.5059 231.801C42.7595 283.121 94.9835 318.765 155.339 316.619C197.805 315.106 232.026 301.937 256.648 279.304L206.976 241.626C193.355 250.955 176.324 255.496 157.011 255.496Z" fill="#00AC47"/>
<path d="M153.668 135.462V194.372H237.651C232.298 215.966 221.613 231.575 206.976 241.604L256.625 279.281C285.787 252.469 301.485 212.42 301.485 162.68C301.485 153.397 300.763 144.294 299.34 135.462" fill="#2485FC"/>
</svg>
