<?xml version="1.0" standalone="no"?><!DOCTYPE svg PUBLIC "-//W3C//DTD SVG 1.1//EN" "http://www.w3.org/Graphics/SVG/1.1/DTD/svg11.dtd"><svg t="1756866117272" class="icon" viewBox="0 0 2469 1024" version="1.1" xmlns="http://www.w3.org/2000/svg" p-id="13456" xmlns:xlink="http://www.w3.org/1999/xlink" width="925.875" height="384"><path d="M1318.309647 89.148235c-86.558118-6.987294-173.477647-1.505882-260.216471-2.710588-3.433412 0-7.047529-0.060235-7.830588 2.288941v701.741177h86.016V505.253647c9.517176 0 16.384 0.120471 23.190588 0 53.368471-1.445647 106.797176 2.228706 160.165648-2.288941 90.533647-7.830588 192.451765-91.437176 188.53647-214.738824-3.614118-108.604235-98.605176-191.668706-189.861647-199.077647z m-3.252706 329.848471c-9.155765 1.626353-18.432 2.409412-27.708235 2.409412h-150.166588V174.320941c4.698353-4.939294 10.360471-3.734588 15.600941-3.614117 48.489412 0.421647 96.978824 0.542118 145.468235 1.626352 59.813647 1.385412 114.928941 53.308235 118.964706 111.314824 4.698353 66.861176-38.731294 124.205176-102.159059 135.348706z m536.45553-90.352941c-48.067765-30.539294-101.797647-36.562824-156.852706-33.129412-43.128471 2.650353-83.727059 14.938353-119.265883 41.020235-18.913882 13.974588-35.478588 30.177882-48.730353 50.959059l76.438589 47.766588c56.199529-74.631529 139.625412-72.282353 185.404235-47.104 46.08 25.419294 70.716235 72.704 60.837647 118.66353-1.626353 0.120471-2.108235 0.240941-2.529882 0.12047-1.807059-0.602353-3.614118-1.204706-5.421177-1.987764a301.056 301.056 0 0 0-222.208-9.396706c-112.64 37.948235-131.734588 148.540235-91.015529 222.870588 55.055059 100.592941 226.605176 126.915765 305.573647 20.540235 3.855059-5.12 6.505412-12.047059 16.384-14.275764v65.054117h83.184941c0.481882-3.312941 0.963765-5.240471 0.963765-7.228235-0.120471-103.905882 1.626353-207.932235-1.204706-311.898353-1.686588-59.934118-29.575529-108.905412-81.558588-141.974588z m-112.880942 395.926588c-37.888 9.336471-73.848471 6.083765-106.134588-17.829647-38.851765-28.792471-43.550118-80.534588-10.36047-115.772235 18.793412-19.937882 42.465882-31.021176 68.969411-36.261647a221.906824 221.906824 0 0 1 129.505883 12.40847c10.360471 4.216471 20.178824 9.758118 28.912941 18.070588 3.132235 60.235294-47.585882 123.723294-110.832941 139.324236z m598.377412-412.190118l-139.986823 345.810824-4.698353-0.602353L2049.204706 312.018824h-95.533177l198.595765 450.800941-111.917176 242.266353h90.533647l302.381176-695.115294c-34.334118 0.481882-65.054118-0.843294-96.316235 2.288941z" fill="#525252" p-id="13457"></path><path d="M172.694588 435.320471c0-26.503529 3.855059-52.163765 11.14353-76.257883L46.983529 251.060706a405.142588 405.142588 0 0 0-43.188705 182.814118c0 65.656471 15.420235 128.421647 42.947764 184.32l136.914824-107.640471a261.12 261.12 0 0 1-10.962824-75.294118v0.060236z" fill="#FFB900" p-id="13458"></path><path d="M418.695529 189.319529a224.496941 224.496941 0 0 1 151.009883 61.680942l112.820706-117.63953C614.4 66.740706 521.396706 26.383059 414.238118 26.383059a409.840941 409.840941 0 0 0-367.314824 224.677647L183.777882 359.002353c29.997176-99.388235 118.061176-172.393412 234.917647-169.743059z" fill="#FE2727" p-id="13459"></path><path d="M418.695529 681.321412c-117.157647 0-205.402353-71.68-235.038117-170.767059L46.682353 618.134588c67.343059 136.854588 206.607059 231.905882 367.555765 226.18353 113.242353-4.035765 204.498824-39.152941 270.155294-99.508706l-132.457412-100.472471c-36.321882 24.877176-81.739294 36.984471-133.240471 36.984471z" fill="#00AC47" p-id="13460"></path><path d="M409.780706 361.231059v157.093647h223.954823c-14.275765 57.584941-42.767059 99.207529-81.799529 125.952l132.397176 100.47247c77.763765-71.499294 119.627294-178.296471 119.627295-310.934588 0-24.756706-1.927529-49.031529-5.722353-72.583529" fill="#2485FC" p-id="13461"></path></svg>