<?xml version="1.0" standalone="no"?><!DOCTYPE svg PUBLIC "-//W3C//DTD SVG 1.1//EN" "http://www.w3.org/Graphics/SVG/1.1/DTD/svg11.dtd"><svg t="1754364500361" class="icon" viewBox="0 0 1732 1024" version="1.1" xmlns="http://www.w3.org/2000/svg" p-id="9863" xmlns:xlink="http://www.w3.org/1999/xlink" width="433" height="256"><path d="M861.891597 109.48985l255.999606 18.510741v832.038104l-255.999606-45.528545-319.960123-31.82272 117.523511-696.24016z" fill="#FF5F00" p-id="9864"></path><path d="M665.520207 512c0-163.367133 76.799882-308.77491 196.37139-402.51015A513.417056 513.417056 0 0 0 544.137009 0.000788C260.174369 0.000788 29.932262 229.218897 29.932262 512S260.174369 1023.999212 544.137009 1023.999212c119.965354 0 230.320876-40.959937 317.754588-109.489062A510.345061 510.345061 0 0 1 665.598976 512" fill="#EB001B" p-id="9865"></path><path d="M1677.860803 829.281973v-19.849815h-5.198761l-5.986452 13.627056-5.986453-13.627056h-5.198761v19.849815h3.623379v-14.96613l5.671376 12.918134h3.780917l5.671376-12.996904v14.966131h3.623379z m-33.004257 0v-16.541513h6.695375v-3.308302h-17.014128v3.387072h6.695374v16.462743h3.623379z m49.073156-317.281973c0 282.781103-230.242107 511.999212-514.204748 511.999212a513.338287 513.338287 0 0 1-317.833357-109.489062 510.266292 510.266292 0 0 0 196.450159-402.51015c0-163.288364-76.799882-308.77491-196.450159-402.51015A513.338287 513.338287 0 0 1 1179.724954 0.000788c283.96264 0 514.204747 229.218109 514.204748 511.999212z" fill="#F79E1B" p-id="9866"></path></svg>