<svg width="835" height="256" viewBox="0 0 835 256" fill="none" xmlns="http://www.w3.org/2000/svg">
<g clip-path="url(#clip0_632_9266)">
<path d="M294.146 252.321L336.411 4.31H404.012L361.718 252.321H294.146ZM606.896 10.4165C593.502 5.392 572.517 0 546.309 0C479.513 0 432.46 33.6375 432.06 81.8467C431.684 117.483 465.651 137.364 491.293 149.227C517.605 161.383 526.452 169.136 526.326 179.991C526.159 196.615 505.314 204.21 485.883 204.21C458.826 204.21 444.452 200.452 422.252 191.192L413.54 187.249L404.053 242.77C419.842 249.692 449.039 255.691 479.355 256.001C550.414 256.001 596.544 222.749 597.069 171.268C597.323 143.056 579.313 121.584 540.313 103.884C516.684 92.4115 502.213 84.7558 502.367 73.1383C502.367 62.8295 514.615 51.806 541.079 51.806C563.185 51.4627 579.198 56.2835 591.674 61.3078L597.733 64.1697L606.896 10.4165ZM780.242 4.547H728.007C711.825 4.547 699.715 8.96325 692.608 25.1138L592.213 252.4H663.198C663.198 252.4 674.806 221.839 677.431 215.13C685.188 215.13 754.147 215.236 764.006 215.236C766.028 223.918 772.23 252.4 772.23 252.4H834.957L780.242 4.547ZM696.884 164.402C702.475 150.112 723.817 95.0732 723.817 95.0732C723.418 95.7332 729.366 80.7142 732.78 71.4025L737.35 92.7852C737.35 92.7852 750.294 151.986 752.999 164.4H696.884V164.402ZM237.449 4.491L171.266 173.616L164.214 139.246C151.894 99.6252 113.507 56.7 70.5918 35.21L131.108 252.107L202.631 252.025L309.055 4.4915H237.449" fill="white"/>
<path d="M109.868 4.33765H0.86275L0 9.49765C84.805 30.0266 140.92 79.6371 164.213 139.246L140.51 25.2759C136.418 9.5714 124.55 4.88515 109.868 4.33765Z" fill="#FAA61A"/>
</g>
<defs>
<clipPath id="clip0_632_9266">
<rect width="834.75" height="256" fill="white"/>
</clipPath>
</defs>
</svg>
